<svg id="svg" version="1.1" xmlns="http://www.w3.org/2000/svg" xmlns:xlink="http://www.w3.org/1999/xlink" width="400" height="402.0075282308658" viewBox="0, 0, 400,402.0075282308658"><g id="svgg"><path id="path0" d="M258.595 5.981 C 256.105 7.173,254.929 9.827,255.699 12.514 C 258.501 22.281,255.286 42.593,246.263 72.146 C 241.082 89.113,235.601 103.655,223.137 133.501 C 221.897 136.468,218.454 144.711,215.485 151.819 C 201.613 185.032,203.050 181.255,203.529 183.251 C 205.081 189.723,219.145 193.237,266.499 198.986 C 274.435 199.949,284.632 201.193,289.158 201.750 C 298.276 202.871,298.780 202.859,300.449 201.484 C 303.218 199.201,302.900 194.748,299.843 193.002 C 298.702 192.350,297.981 192.223,289.896 191.243 C 242.876 185.544,231.729 183.959,222.459 181.654 C 217.608 180.447,215.251 179.679,215.383 179.346 C 215.448 179.181,217.108 175.207,219.071 170.514 C 234.262 134.216,239.477 121.625,243.288 112.045 C 261.840 65.411,270.524 26.110,265.856 9.912 C 264.827 6.341,261.549 4.566,258.595 5.981 M29.737 62.148 C 24.217 65.058,26.289 71.595,32.952 72.290 C 45.699 73.620,68.543 86.258,97.491 107.995 C 109.904 117.317,116.129 122.511,157.089 157.722 C 177.575 175.332,176.041 174.074,177.436 174.409 C 183.893 175.958,192.037 163.948,208.580 128.482 C 227.137 88.696,225.955 91.330,225.941 89.802 C 225.908 86.300,222.670 83.923,219.277 84.909 C 217.423 85.449,216.600 86.404,214.922 89.962 C 213.523 92.932,202.598 116.396,201.253 119.322 C 191.556 140.419,183.025 156.635,179.077 161.481 L 178.464 162.233 177.877 161.705 C 177.554 161.415,174.467 158.757,171.016 155.800 C 167.566 152.842,158.758 145.282,151.443 139.000 C 107.599 101.346,89.893 87.948,65.531 73.990 C 49.964 65.072,34.129 59.833,29.737 62.148 M93.660 124.205 C 90.026 125.091,88.367 129.856,90.754 132.551 C 91.009 132.838,99.404 140.699,109.410 150.019 C 127.599 166.960,140.656 179.698,144.992 184.730 C 148.115 188.355,150.643 191.745,150.394 191.971 C 150.281 192.074,143.074 196.482,134.379 201.767 C 108.139 217.716,102.981 220.868,92.848 227.149 C 57.991 248.756,27.831 272.921,16.370 288.427 C 8.928 298.495,7.691 304.035,12.349 306.423 C 15.480 308.029,18.078 306.651,20.198 302.258 C 25.544 291.186,38.464 278.549,64.115 259.306 C 79.447 247.805,88.768 241.811,136.261 212.917 C 141.437 209.768,147.986 205.782,150.816 204.059 C 153.645 202.336,156.976 200.311,158.218 199.560 C 160.984 197.886,161.543 197.393,162.135 196.110 C 164.822 190.290,155.008 178.039,126.344 151.429 C 118.554 144.197,115.903 141.731,110.153 136.372 C 106.904 133.344,102.856 129.567,101.158 127.980 C 97.226 124.304,95.930 123.652,93.660 124.205 M382.183 206.386 C 370.589 212.998,353.680 215.691,320.452 216.216 C 299.524 216.547,287.432 215.819,219.448 210.135 C 204.427 208.879,204.296 208.879,202.574 210.192 C 200.224 211.985,199.232 217.442,199.740 225.788 C 200.360 235.988,202.199 247.669,207.017 272.020 C 207.413 274.021,208.994 282.152,210.531 290.088 C 212.067 298.024,213.510 304.950,213.736 305.479 C 215.300 309.132,220.539 309.574,222.819 306.246 C 224.096 304.382,224.149 304.836,220.439 285.856 C 214.894 257.491,214.342 254.607,213.298 248.557 C 211.407 237.592,210.484 230.259,210.142 223.486 L 209.966 219.995 212.323 220.154 C 213.619 220.241,223.714 221.053,234.755 221.959 C 285.969 226.158,292.564 226.568,311.167 226.713 C 350.083 227.016,375.090 223.391,387.016 215.717 C 393.004 211.865,388.345 202.872,382.183 206.386 M170.640 216.685 C 163.710 217.835,151.398 223.275,132.999 233.316 C 120.946 239.894,91.253 256.397,90.312 257.041 C 87.292 259.108,87.759 264.164,91.124 265.841 C 93.906 267.227,92.193 267.982,114.806 255.403 C 143.618 239.375,151.896 234.987,160.226 231.324 C 165.205 229.135,169.846 227.455,170.105 227.748 C 170.217 227.876,171.227 231.876,172.350 236.637 C 186.148 295.191,188.988 306.527,193.727 321.957 C 202.055 349.072,211.679 372.069,219.510 383.563 C 227.539 395.350,233.452 398.805,236.992 393.779 C 238.726 391.318,238.118 388.642,235.242 386.067 C 227.535 379.169,219.753 364.490,210.969 340.276 C 202.881 317.979,199.792 306.803,188.083 257.465 C 185.062 244.733,180.321 224.688,179.674 221.908 C 178.559 217.122,176.206 215.761,170.640 216.685 " stroke="none" fill="#04745c" fill-rule="evenodd"></path><path id="path1" d="" stroke="none" fill="#08745c" fill-rule="evenodd"></path></g></svg>